<svg xmlns="http://www.w3.org/2000/svg" width="512" height="512"><path d="M491.318 0H334.439c-11.423 0-20.682 9.26-20.682 20.682 0 11.422 9.259 20.682 20.682 20.682h136.197v136.197c0 11.422 9.259 20.682 20.682 20.682 11.423 0 20.682-9.26 20.682-20.682V20.682C512 9.26 502.741 0 491.318 0zM177.561 470.636H41.365V334.439c0-11.423-9.26-20.682-20.682-20.682C9.26 313.757 0 323.016 0 334.439v156.879C0 502.741 9.26 512 20.682 512h156.879c11.422 0 20.682-9.259 20.682-20.682.001-11.423-9.26-20.682-20.682-20.682z" fill="#FFF"/><path d="M505.943 6.058c-8.077-8.077-21.172-8.077-29.249 0L293.669 189.083c-8.076 8.077-8.076 21.172 0 29.249a20.62 20.62 0 0 0 14.625 6.058 20.62 20.62 0 0 0 14.625-6.058L505.943 35.307c8.076-8.077 8.076-21.172 0-29.249zM218.332 293.669c-8.076-8.077-21.172-8.077-29.249 0L6.058 476.693c-8.077 8.077-8.077 21.172 0 29.249A20.611 20.611 0 0 0 20.682 512a20.618 20.618 0 0 0 14.625-6.058l183.025-183.025c8.077-8.076 8.077-21.171 0-29.248z" fill="#FFF"/></svg>