<svg xmlns="http://www.w3.org/2000/svg" viewBox="0 0 356.314 356.314"><path d="M311.798 310.627c-1.324 13.44-13.456 24.436-26.959 24.436H119.475c-13.504 0-25.636-10.996-26.958-24.436l-26.09-264.94c-1.323-13.439 8.644-24.436 22.148-24.436H315.74c13.504 0 23.471 10.996 22.147 24.436l-26.089 264.94z" fill="#333e48"/><path d="M328.874 21.252c15.155 0 27.44 12.286 27.44 27.44 0 15.155-12.286 27.44-27.44 27.44H75.44C60.286 76.133 48 63.848 48 48.692c0-15.154 12.286-27.44 27.44-27.44h253.434z" fill="#3e4a57"/><path d="M263.798 310.627c-1.324 13.44-13.456 24.436-26.959 24.436H71.475c-13.504 0-25.636-10.996-26.959-24.436L18.427 45.687c-1.323-13.439 8.644-24.436 22.148-24.436H267.74c13.504 0 23.471 10.996 22.147 24.436l-26.089 264.94z" fill="#3e4a57"/><path d="M280.874 21.252c15.155 0 27.44 12.286 27.44 27.44 0 15.155-12.286 27.44-27.44 27.44H27.44C12.286 76.133 0 63.848 0 48.692c0-15.154 12.286-27.44 27.44-27.44h253.434z" fill="#4c5b6b"/><g fill="#8dcd6f"><path d="M195.753 161.987l-24.063-41.678v.001l-34.98.001-.001-.001-20.846 36.109 15.688-1.996 6.389 15.238 16.433-28.463 19.348 33.51-11.362 6.56 32.379 4.122 12.62-30.103zM103.807 177.315l-24.064 41.68.003-.002 17.49 30.293v.001h41.693l-9.573-12.588 10.004-13.153h-32.867l19.347-33.51 11.361 6.56-12.62-30.102-32.379 4.121zM162.956 249.125h48.128l-.004-.002 17.49-30.294h.001l-20.846-36.107-6.116 14.585-16.392-2.087 16.433 28.464h-38.694v-13.121l-19.758 25.981 19.759 25.98z"/></g></svg>